<?xml version="1.0" encoding="utf-8"?>
<!-- Generator: Adobe Illustrator 17.0.0, SVG Export Plug-In . SVG Version: 6.00 Build 0)  -->
<!DOCTYPE svg PUBLIC "-//W3C//DTD SVG 1.1//EN" "http://www.w3.org/Graphics/SVG/1.1/DTD/svg11.dtd">
<svg version="1.1" id="Layer_1" xmlns="http://www.w3.org/2000/svg" xmlns:xlink="http://www.w3.org/1999/xlink" x="0px" y="0px"
	 width="211px" height="63.667px" viewBox="18 13.049 211 63.667" enable-background="new 18 13.049 211 63.667"
	 xml:space="preserve">
<g>
	<path fill="#95C11F" d="M49.576,16.34c-4.131,0-7.458,3.143-7.458,7.481c0,4.335,3.328,7.476,7.458,7.476
		c4.127,0,7.475-3.141,7.475-7.476C57.051,19.483,53.703,16.34,49.576,16.34z M49.573,29.399c-3.18,0-5.297-2.285-5.297-5.576
		c0-3.333,2.117-5.583,5.297-5.583c3.208,0,5.319,2.25,5.319,5.583C54.892,27.114,52.781,29.399,49.573,29.399z"/>
	<path fill="#95C11F" d="M173.966,16.34c-4.131,0-7.456,3.143-7.456,7.481c0,4.335,3.325,7.476,7.456,7.476
		c4.126,0,7.476-3.141,7.476-7.476C181.441,19.483,178.092,16.34,173.966,16.34z M173.966,29.399c-3.18,0-5.3-2.285-5.3-5.576
		c0-3.333,2.121-5.583,5.3-5.583c3.204,0,5.315,2.25,5.315,5.583C179.281,27.114,177.169,29.399,173.966,29.399z"/>
	<g>
		<path fill="#FFFFFF" d="M224.131,34.936c-1.17-0.771-2.589-1.159-4.248-1.159h-15.991v16.856h9.45V36.179h3.064v14.454h9.489
			V37.797C225.895,36.664,225.308,35.712,224.131,34.936z"/>
		<path fill="#FFFFFF" d="M182.087,49.393c1.227,0.834,2.73,1.24,4.498,1.24h9.278c1.768,0,3.27-0.406,4.514-1.24
			c1.244-0.829,1.865-1.836,1.865-3.021v-8.328c0-1.187-0.622-2.196-1.865-3.027c-1.244-0.826-2.746-1.24-4.514-1.24h-9.278
			c-1.768,0-3.271,0.415-4.498,1.24c-1.228,0.831-1.842,1.84-1.842,3.027v8.328C180.245,47.557,180.858,48.565,182.087,49.393z
			 M189.776,36.222h2.938v12.099h-2.938V36.222z"/>
		<path fill="#FFFFFF" d="M133.287,49.458c1.157,0.786,2.565,1.175,4.224,1.175h16.034V33.777h-9.485v14.458h-3.067V33.777h-9.446
			v12.845C131.546,47.726,132.124,48.666,133.287,49.458z"/>
		<path fill="#FFFFFF" d="M118.794,46.373v-8.328c0-1.187-0.621-2.196-1.861-3.027c-1.244-0.826-2.75-1.24-4.518-1.24h-9.281
			c-1.765,0-3.263,0.415-4.491,1.24c-1.235,0.831-1.846,1.84-1.846,3.027v8.328c0,1.185,0.611,2.192,1.846,3.021
			c1.228,0.834,2.727,1.24,4.491,1.24h9.281c1.768,0,3.274-0.406,4.518-1.24C118.173,48.565,118.794,47.557,118.794,46.373z
			 M109.266,48.321h-2.941V36.222h2.941V48.321z"/>
		<path fill="#FFFFFF" d="M84.913,35.017c-1.243,0.831-1.862,1.84-1.862,3.027v10.151H80.27v2.438h5.93
			c1.764,0,3.271-0.406,4.514-1.24c1.24-0.829,1.866-1.836,1.866-3.021v-10.15h2.567v-2.445h-5.758
			C87.647,33.777,86.157,34.192,84.913,35.017z"/>
		<polygon fill="#FFFFFF" points="74.712,38.045 68.332,33.777 57.56,33.777 57.56,36.222 65.18,36.222 56.108,46.373 
			62.492,50.634 73.261,50.634 73.261,48.196 65.637,48.196 		"/>
		<path fill="#FFFFFF" d="M54.204,32.24c-1.275,0.987-2.871,1.586-4.627,1.586c-1.752,0-3.34-0.596-4.611-1.577v18.383h9.239V32.24
			H54.204z"/>
		<path fill="#FFFFFF" d="M178.593,32.24c-1.275,0.987-2.867,1.586-4.627,1.586c-1.752,0-3.341-0.596-4.611-1.577v18.383h9.239
			V32.24H178.593z"/>
		<path fill="#FFFFFF" d="M41.343,34.98c-1.177-0.774-2.59-1.159-4.244-1.159H30.55v-3.298h-0.023v-0.146
			c0-1.158-0.61-2.152-1.826-2.982c-1.224-0.829-2.703-1.24-4.451-1.24h-3.145v3.8V50.68H37.1c1.654,0,3.066-0.391,4.244-1.177
			c1.174-0.789,1.76-1.735,1.76-2.842v-8.822C43.103,36.707,42.517,35.749,41.343,34.98z M33.614,48.277H30.55V36.263h3.063
			L33.614,48.277L33.614,48.277z"/>
		<path fill="#FFFFFF" d="M167.661,48.236h-2.981V36.222h3.023v-2.445h-3.023v-3.596h-0.031c-0.058-1.089-0.653-2.038-1.815-2.83
			c-1.228-0.833-2.722-1.247-4.474-1.247h-3.165v4.17v16.348c0,1.104,0.579,2.044,1.736,2.836c1.162,0.786,2.585,1.175,4.268,1.175
			h6.462V48.236z"/>
		<path fill="#FFFFFF" d="M129.895,48.277h-0.004V36.263h0.004v-2.442h-0.004v-3.298h-0.023v-0.146c0-1.158-0.606-2.152-1.831-2.982
			c-1.217-0.829-2.698-1.24-4.444-1.24h-3.148v3.8V50.68h9.451v-2.403H129.895z"/>
		<rect x="44.981" y="61.715" fill="#FFFFFF" width="1.498" height="8.646"/>
		<path fill="#FFFFFF" d="M52.912,61.569c-1.319,0-2.149,0.57-3.078,1.14l-0.375-0.994h-1.123v8.647h1.498v-6.545
			c1.091-0.57,1.694-0.879,2.898-0.879c0.749,0,1.319,0.456,1.319,1.466v5.959h1.498v-5.959
			C55.549,62.92,54.703,61.569,52.912,61.569z"/>
		<path fill="#FFFFFF" d="M61.611,65.347h-2.426c-0.538,0-0.944-0.017-0.944-0.831v-0.651c0-0.505,0.032-0.847,0.944-0.847h4.152
			v-1.074c-0.799-0.163-3.272-0.31-4.348-0.31c-1.677,0-2.246,0.863-2.246,2.198v0.749c0,1.677,0.764,2.183,2.295,2.183h2.426
			c0.651,0,0.814,0.292,0.814,0.813v0.684c0,0.863-0.766,0.782-0.814,0.782H57.1v1.042c0.619,0.163,3.533,0.358,4.56,0.358
			c1.042,0,2.117-0.358,2.117-2.133v-0.814C63.777,66.258,63.092,65.347,61.611,65.347z"/>
		<path fill="#FFFFFF" d="M69.822,61.617c-1.091,0-2.605,0.684-3.045,1.026l-0.341-0.929h-1.14v13.043h1.464v-4.885
			c0.977,0.391,2.329,0.62,3.062,0.62c2.442,0,2.832-2.199,2.832-4.495C72.654,63.848,72.117,61.617,69.822,61.617z M69.659,69.123
			c-1.124,0-1.906-0.114-2.882-0.39v-5.015c0.766-0.342,1.711-0.701,2.882-0.701c0.961,0,1.498,0.944,1.498,3.012
			C71.157,68.554,70.603,69.123,69.659,69.123z"/>
		<rect x="74.304" y="61.715" fill="#FFFFFF" width="1.498" height="8.646"/>
		<path fill="#FFFFFF" d="M79.157,62.806L78.8,61.715h-1.141v8.647h1.498v-6.285c1.075-0.668,1.742-0.944,2.947-0.944
			c0.472,0,1.01,0.032,1.221,0.081v-1.466c-0.211-0.098-0.7-0.13-1.139-0.13C80.916,61.617,80.037,62.236,79.157,62.806z"/>
		<path fill="#FFFFFF" d="M91.259,64.727c0-2.865-1.238-3.078-3.403-3.078c-2.687,0-3.778,0.521-3.778,4.347
			c0,3.322,0.651,4.446,2.85,4.446c1.351,0,2.865-0.065,4.168-0.456v-1.091c-1.222,0.195-2.377,0.179-3.827,0.179
			c-1.271,0-1.693-0.392-1.693-2.296h3.403C90.543,66.779,91.259,66.063,91.259,64.727z M85.576,65.46
			c-0.016-2.426,0.652-2.459,2.329-2.459c1.579,0,1.856,0.163,1.856,1.71c0,0.488-0.293,0.749-0.944,0.749H85.576z"/>
		<path fill="#FFFFFF" d="M109.864,65.347h-2.425c-0.537,0-0.944-0.017-0.944-0.831v-0.651c0-0.505,0.032-0.847,0.944-0.847h4.152
			v-1.074c-0.799-0.163-3.272-0.31-4.348-0.31c-1.677,0-2.246,0.863-2.246,2.198v0.749c0,1.677,0.765,2.183,2.296,2.183h2.425
			c0.651,0,0.814,0.292,0.814,0.813v0.684c0,0.863-0.766,0.782-0.814,0.782h-4.364v1.042c0.619,0.163,3.534,0.358,4.56,0.358
			c1.042,0,2.116-0.358,2.116-2.133v-0.814C112.03,66.258,111.345,65.347,109.864,65.347z"/>
		<path fill="#FFFFFF" d="M117.668,61.553c-1.612,0.015-2.996,0.161-4.152,0.504v1.026c1.352-0.098,2.964-0.18,4.022-0.18
			c0.798,0,1.286,0.277,1.286,1.255c0.016,0.015,0,0.943,0,0.943c0,0.017-3.322,0-3.322,0c-1.482,0-2.263,0.928-2.263,2.215v0.944
			c0,1.319,0.928,2.182,2.247,2.198c1.433,0,3.289-1.059,3.338-1.107l0.358,1.01h1.14v-6.22
			C120.323,62.253,119.15,61.536,117.668,61.553z M118.824,68.293c0,0-1.954,0.798-3.159,0.798c-0.521,0-0.928-0.211-0.928-0.977
			v-0.7c0-0.488,0.228-0.944,0.896-1.009l3.191-0.228C118.824,66.177,118.824,68.293,118.824,68.293z"/>
		<path fill="#FFFFFF" d="M124.446,59.289h-1.173l-0.325,2.41l-1.547,0.342v1.009h1.547v4.217c0,2.296,0.879,3.077,2.149,3.077h1.58
			v-1.009c-0.114,0-1.352-0.342-1.352-0.342c-0.521-0.13-0.879-0.439-0.879-1.823v-4.12h2.36v-1.352h-2.36L124.446,59.289
			L124.446,59.289z"/>
		<rect x="128.162" y="61.715" fill="#FFFFFF" width="1.498" height="8.646"/>
		<path fill="#FFFFFF" d="M136.076,65.347h-2.426c-0.537,0-0.945-0.017-0.945-0.831v-0.651c0-0.505,0.033-0.847,0.945-0.847h4.152
			v-1.074c-0.799-0.163-3.273-0.31-4.348-0.31c-1.677,0-2.247,0.863-2.247,2.198v0.749c0,1.677,0.765,2.183,2.295,2.183h2.426
			c0.651,0,0.814,0.292,0.814,0.813v0.684c0,0.863-0.765,0.782-0.814,0.782h-4.363v1.042c0.619,0.163,3.533,0.358,4.559,0.358
			c1.042,0,2.116-0.358,2.116-2.133v-0.814C138.241,66.258,137.557,65.347,136.076,65.347z"/>
		<path fill="#FFFFFF" d="M140.346,60.104v1.611l-1.514,0.278v1.074h1.514v7.294h1.498v-7.294h2.28v-1.352h-2.28V60.25
			c0-0.814,0.016-1.384,1.026-1.368c0,0,1.856,0.017,1.873,0.017v-0.945c-0.766-0.26-1.449-0.39-2.248-0.39
			C140.542,57.564,140.346,59.061,140.346,60.104z"/>
		<path fill="#FFFFFF" d="M149.939,68.912c-0.032,0-0.748,0.243-1.026-0.635l-1.92-6.562h-1.612l2.002,6.741
			c0.505,1.711,1.547,1.905,2.117,1.905l-1.45,4.396h0.994l1.204-1.661l3.599-11.382h-1.629L149.939,68.912z"/>
		<path fill="#FFFFFF" d="M170.06,59.289h-1.173l-0.325,2.41l-1.546,0.342v1.009h1.546v4.217c0,2.296,0.879,3.077,2.149,3.077h1.58
			v-1.009c-0.114,0-1.352-0.342-1.352-0.342c-0.521-0.13-0.879-0.439-0.879-1.823v-4.12h2.361v-1.352h-2.361V59.289z"/>
		<path fill="#FFFFFF" d="M175.29,62.806l-0.358-1.092h-1.14v8.647h1.498v-6.285c1.074-0.668,1.742-0.944,2.947-0.944
			c0.472,0,1.01,0.032,1.221,0.081v-1.466c-0.211-0.098-0.7-0.13-1.14-0.13C177.048,61.617,176.17,62.236,175.29,62.806z"/>
		<path fill="#FFFFFF" d="M186.251,68.244c-1.107,0.586-1.694,0.879-2.898,0.879c-0.749,0-1.319-0.423-1.319-1.449v-5.959h-1.498
			v5.943c0,1.497,0.83,2.85,2.639,2.85c1.318,0,2.117-0.57,3.077-1.123l0.375,0.977h1.124v-8.647h-1.498v6.529H186.251z"/>
		<path fill="#FFFFFF" d="M194.121,65.347h-2.426c-0.537,0-0.944-0.017-0.944-0.831v-0.651c0-0.505,0.033-0.847,0.944-0.847h4.152
			v-1.074c-0.798-0.163-3.273-0.31-4.348-0.31c-1.677,0-2.247,0.863-2.247,2.198v0.749c0,1.677,0.766,2.183,2.296,2.183h2.426
			c0.651,0,0.814,0.292,0.814,0.813v0.684c0,0.863-0.765,0.782-0.814,0.782h-4.363v1.042c0.619,0.163,3.533,0.358,4.559,0.358
			c1.042,0,2.116-0.358,2.116-2.133v-0.814C196.286,66.258,195.602,65.347,194.121,65.347z"/>
		<path fill="#FFFFFF" d="M199.921,59.289h-1.172l-0.326,2.41l-1.547,0.342v1.009h1.547v4.217c0,2.296,0.879,3.077,2.149,3.077h1.58
			v-1.009c-0.114,0-1.352-0.342-1.352-0.342c-0.521-0.13-0.879-0.439-0.879-1.823v-4.12h2.361v-1.352h-2.361L199.921,59.289
			L199.921,59.289z"/>
		<circle fill="#FFFFFF" cx="45.77" cy="59.15" r="1.072"/>
		<circle fill="#FFFFFF" cx="75.052" cy="59.15" r="1.072"/>
		<circle fill="#FFFFFF" cx="128.91" cy="59.15" r="1.072"/>
		<circle fill="#FFFFFF" cx="98.128" cy="69.434" r="1.072"/>
		<circle fill="#FFFFFF" cx="159.995" cy="69.434" r="1.072"/>
	</g>
</g>
</svg>
